<svg id="_1_-_10"
     height="512"
     viewBox="0 0 48 48"
     width="512"
     xmlns="http://www.w3.org/2000/svg"
     data-name="1 - 10">

    <g id="Graduate">

        <!-- Tua rua PTIT -->
        <path
            fill="#0078D4"
            d="m44.485 31.5a2.489 2.489 0 0 0 -.485-4.289v-3.421l-2 .85v2.571a2.489 2.489 0 0 0 -.485 4.29 2.488 2.488 0 0 0 -1.015 2v2.499a1 1 0 0 0 1 1h3a1 1 0 0 0 1-1v-2.5a2.488 2.488 0 0 0 -1.015-2z"/>

        <!-- Thân mũ -->
        <path
            fill="#E0AE35"
            d="m39 25.91v7.4a4.961 4.961 0 0 1 -2.4 4.28 24.984 24.984 0 0 1 -25.2 0 4.961 4.961 0 0 1 -2.4-4.28v-7.4l12.27 5.19a7.05 7.05 0 0 0 5.46 0z"/>

        <!-- Mặt trên mũ -->
        <path
            fill="#FFD75E"
            d="m46.036 15.237-20.088-8.5a5.029 5.029 0 0 0 -3.9 0l-20.088 8.5a3 3 0 0 0 0 5.526l20.088 8.5a5.024 5.024 0 0 0 3.9 0l20.088-8.5a3 3 0 0 0 0-5.526z"/>

    </g>

</svg>