<svg fill="none"
     height="512"
     viewBox="0 0 24 24"
     width="512"
     xmlns="http://www.w3.org/2000/svg">

    <!-- Destination -->
    <path
        clip-rule="evenodd"
        fill-rule="evenodd"
        fill="#32C766"
        d="m19 20c.5523 0 1-.4477 1-1s-.4477-1-1-1-1 .4477-1 1 .4477 1 1 1zm0 2c1.6569 0 3-1.3431 3-3s-1.3431-3-3-3-3 1.3431-3 3 1.3431 3 3 3z"/>

    <!-- Route -->
    <path
        clip-rule="evenodd"
        fill-rule="evenodd"
        fill="#0078D4"
        d="m15.5 4c-1.3807 0-2.5 1.11929-2.5 2.5v11c0 2.4853-2.0147 4.5-4.5 4.5-2.48528 0-4.5-2.0147-4.5-4.5v-7.5c0-.55228.44772-1 1-1s1 .44772 1 1v7.5c0 1.3807 1.11929 2.5 2.5 2.5s2.5-1.1193 2.5-2.5v-11c0-2.48528 2.0147-4.5 4.5-4.5s4.5 2.01472 4.5 4.5v6.5c0 .5523-.4477 1-1 1s-1-.4477-1-1v-6.5c0-1.38071-1.1193-2.5-2.5-2.5z"/>

    <!-- Starting Point -->
    <path
        fill="#FFD75E"
        d="m4.13619 2.48076c.38588-.6615 1.34168-.6615 1.72756 0l1.75896 3.01537c.38889.66666-.09199 1.50387-.86378 1.50387h-3.51792c-.77179 0-1.25266-.83721-.86378-1.50387z"/>

</svg>