<svg fill="none" height="512" viewBox="0 0 24 24" width="512" xmlns="http://www.w3.org/2000/svg" xmlns:xlink="http://www.w3.org/1999/xlink">
  <linearGradient id="paint0_linear_2_4929" gradientUnits="userSpaceOnUse" x1="11.999" x2="11.999" y1="2" y2="22.023">
    <stop offset="0" stop-color="#FF9966"/>
    <stop offset="1" stop-color="#FF5E62"/>
  </linearGradient>
  
  <path 
    clip-rule="evenodd" 
    d="m20.8906 15.9277c2.4161-3.9098.4521-8.72711-1.8195-10.99877-3.9053-3.90524-10.23692-3.90524-14.14217 0-3.90524 3.90525-3.90524 10.23687 0 14.14217 2.36839 2.3684 7.09797 4.2447 10.99927 1.8202.216-.1342.3241-.2014.4065-.2342.1572-.0626.2779-.081.4465-.0681.0885.0068.1884.0327.3883.0845 1.2578.326 1.8868.4891 2.3399.3969.7864-.1601 1.4009-.7746 1.561-1.561.0922-.4531-.0708-1.082-.3968-2.3398-.0518-.1999-.0778-.2998-.0846-.388-.013-.1687.005-.288.0673-.4452.0326-.0823.0998-.1911.2343-.4087zm-9.0327-6.81982c-.4142 0-.75.33579-.75.75 0 .41422.3358.75002.75.75002h4c.4142 0 .75-.3358.75-.75002 0-.41421-.3358-.75-.75-.75zm-3.99999 4.00002c-.41421 0-.75.3358-.75.75s.33579.75.75.75h7.99999c.4142 0 .75-.3358.75-.75s-.3358-.75-.75-.75z" 
    fill="url(#paint0_linear_2_4929)" 
    fill-rule="evenodd"/>
</svg>